# xmcd
#
# Track frame offsets:
#	150
#	20404
#	36079
#	53096
#	67034
#	84981
#	124339
#	139650
#	155215
#	217050
#	258127
#	296111
#	323399
#
# Disc length: 4781 seconds
#
# Revision: 1
# Processed by: cddbd v1.5.1PL2 Copyright (c) Steve Scherf et al.
# Submitted via: EasyCDDAExtractor 9.0.0.1
#
DISCID=bd12ab0d
DTITLE=Kiss - Cobo Hall Detroit 25-01-76
DYEAR=1976
DGENRE=Hard Rock
TTITLE0=Deuce
TTITLE1=Strutter
TTITLE2=C'mon And Love Me
TTITLE3=Hotter Than Hell
TTITLE4=Firehouse
TTITLE5=She - Ace Solo
TTITLE6=Parasite
TTITLE7=Nothin' To Loose
TTITLE8=Gene Solo - 100 000 Years
TTITLE9=Black Diamond
TTITLE10=Cold Gin (Encore)
TTITLE11=Rock And Roll All Nite (Encore)
TTITLE12=Let Me Go Rock N Roll (Encore)
EXTD=
EXTT0=
EXTT1=
EXTT2=
EXTT3=
EXTT4=
EXTT5=
EXTT6=
EXTT7=
EXTT8=
EXTT9=
EXTT10=
EXTT11=
EXTT12=
PLAYORDER=
